<?xml version="1.0" encoding="utf-8"?>
<svg version="1.1" xmlns="http://www.w3.org/2000/svg" xmlns:xlink="http://www.w3.org/1999/xlink" x="0px" y="0px"
	 viewBox="0 0 100 170" style="enable-background:new 0 0 100 170;" xml:space="preserve">
<style type="text/css">path{fill:#eee;}</style>
<g>
<path d="M91.2,166.7H22.9c-1.7,0-3-1.3-3-3v-18.8c0-1.7,1.3-3,3-3h68.3c1.7,0,3,1.3,3,3v18.8
	C94.2,165.3,92.8,166.7,91.2,166.7z"/>
<path d="M26.9,139.2l61.3-0.1c0,0-2.5-3.9-2.3-9.1c0.1-5.2,3.3-21.1,7.4-31.9s5.1-14.6,5.6-20.4
	c0.5-5.8-0.3-20.3-3.5-29.7c-3.1-9.4-7.8-17.2-16.4-22.9s-14-7.5-17.6-8c-0.8-4.7-6.1-9.9-11.1-13.8c0,0,1.7,13.2-0.3,13.8
	c-2,0.6-9.2,2.5-9.2,2.5l1.8,5.5c0,0-11.7,3.9-13.6,5.5c-1.6,4.3-3.6,6.8-8.6,11.1S2.6,56.6,2.2,57.4C1.9,58.1,2.4,61,1.9,63
	c-0.4,2-1.6,4.9-0.4,6.8c1.2,1.9,5.2,7.6,7.6,6.3c3.1,1.3,7,2.3,10.6,1.3s5.6-2.9,7-5.3c1.4-2.3,6.1-4.5,9.6-2.8
	c3.5,1.7,12.4,5.4,21.8,0.9c-6.1,4.6-8.9,8.5-12.8,12.9s-16.7,21.8-19,27.6C23.9,116.4,21.2,129.3,26.9,139.2z"/>
</g>
</svg>